<?xml version="1.0" encoding="UTF-8"?>
<svg xmlns="http://www.w3.org/2000/svg" width="1800" height="1080" viewBox="0 0 1800 1080">
  <defs>
    <linearGradient id="pageBg" x1="0" y1="0" x2="1" y2="1">
      <stop offset="0" stop-color="#f9fcff"/>
      <stop offset="1" stop-color="#f2f7fb"/>
    </linearGradient>
    <linearGradient id="gemmGrad" x1="0" y1="0" x2="1" y2="0">
      <stop offset="0" stop-color="#1188ad"/>
      <stop offset="1" stop-color="#36b2d0"/>
    </linearGradient>
    <linearGradient id="postGrad" x1="0" y1="0" x2="1" y2="0">
      <stop offset="0" stop-color="#178f61"/>
      <stop offset="1" stop-color="#45b77d"/>
    </linearGradient>
    <marker id="arrB" markerWidth="10" markerHeight="10" refX="8.5" refY="5" orient="auto">
      <path d="M0 0L10 5L0 10Z" fill="#147f9f"/>
    </marker>
    <marker id="arrG" markerWidth="10" markerHeight="10" refX="8.5" refY="5" orient="auto">
      <path d="M0 0L10 5L0 10Z" fill="#188d60"/>
    </marker>
    <marker id="arrX" markerWidth="10" markerHeight="10" refX="8.5" refY="5" orient="auto">
      <path d="M0 0L10 5L0 10Z" fill="#90a2b1"/>
    </marker>
    <style>
      text { font-family: Inter, "Helvetica Neue", Arial, sans-serif; fill:#153149; }
      .title { font-size:29px; font-weight:750; }
      .sub { font-size:13px; fill:#688096; }
      .head { font-size:15px; font-weight:700; }
      .label { font-size:12px; font-weight:650; }
      .small { font-size:10px; }
      .tiny { font-size:8.5px; }
      .micro { font-size:7.5px; }
      .muted { fill:#6b8195; }
      .white { fill:#fff; }
      .blue { fill:#087d9f; }
      .green { fill:#147c55; }
      .orange { fill:#b66500; }
      .math { font-family:"STIX Two Math","Times New Roman",serif; font-style:italic; }
      .wireB { fill:none; stroke:#147f9f; stroke-width:2.4; marker-end:url(#arrB); }
      .wireG { fill:none; stroke:#188d60; stroke-width:2.4; marker-end:url(#arrG); }
      .wire { fill:none; stroke:#6e899d; stroke-width:1.6; }
      .wireThin { fill:none; stroke:#91a6b6; stroke-width:1.2; }
      .bypass { fill:none; stroke:#90a2b1; stroke-width:2; stroke-dasharray:7 6; marker-end:url(#arrX); }
      .comp { fill:#fff; stroke:#43a878; stroke-width:1.4; }
      .reg { fill:#eef4f8; stroke:#718da1; stroke-width:1.35; }
      .op { fill:#fff; stroke:#2da16e; stroke-width:1.6; }
    </style>
  </defs>

  <rect width="1800" height="1080" fill="url(#pageBg)"/>
  <text x="44" y="44" class="title">Dual-VersaCore SwiGLU Accelerator · RTL Microarchitecture</text>
  <text x="45" y="68" class="sub">Hierarchical architecture with circuit schematics embedded in Rescale, SiLU, elastic-buffer and element-wise units</text>
  <rect x="1445" y="24" width="310" height="40" rx="20" fill="#e9f6ef" stroke="#b9dfcc"/>
  <circle cx="1470" cy="44" r="7" fill="#188d60"/>
  <text x="1486" y="49" class="small green">solid: Mode 0 SwiGLU datapath</text>

  <!-- Accelerator boundary -->
  <rect x="38" y="90" width="1724" height="946" rx="18" fill="#fff" stroke="#182b3b" stroke-width="2.2"/>
  <text x="58" y="118" class="head">FFN / SwiGLU accelerator shell</text>
  <text x="1738" y="117" class="tiny muted" text-anchor="end">all data channels use ready/valid handshake</text>

  <!-- Inputs -->
  <rect x="126" y="132" width="132" height="44" rx="10" fill="#eef8fc" stroke="#46b4d1" stroke-width="1.5"/>
  <text x="192" y="160" class="head math blue" text-anchor="middle">W₁</text>
  <rect x="804" y="132" width="132" height="44" rx="10" fill="#eef8fc" stroke="#46b4d1" stroke-width="1.5"/>
  <text x="870" y="160" class="head math blue" text-anchor="middle">x</text>
  <rect x="1482" y="132" width="132" height="44" rx="10" fill="#eef8fc" stroke="#46b4d1" stroke-width="1.5"/>
  <text x="1548" y="160" class="head math blue" text-anchor="middle">V</text>

  <!-- Shared x broadcast and input synchronization -->
  <rect x="754" y="190" width="232" height="54" rx="9" class="reg"/>
  <text x="770" y="211" class="tiny">D</text>
  <text x="968" y="211" class="tiny" text-anchor="end">Q</text>
  <text x="870" y="214" class="label" text-anchor="middle">x data register</text>
  <text x="870" y="232" class="tiny muted" text-anchor="middle">valid FF + sent₀/sent₁ FFs</text>
  <path d="M870 176V190" class="wireB"/>
  <path d="M754 230H718V273" class="wireB"/>
  <path d="M986 230H1022V273" class="wireB"/>
  <rect x="1004" y="187" width="208" height="61" rx="8" fill="#f8fafc" stroke="#8ea5b7"/>
  <text x="1108" y="206" class="small" font-weight="700" text-anchor="middle">broadcast handshake logic</text>
  <text x="1018" y="222" class="tiny">v₀ = xbuf_v ∧ ¬sent₀</text>
  <text x="1018" y="236" class="tiny">v₁ = xbuf_v ∧ ¬sent₁</text>
  <text x="1108" y="260" class="micro muted" text-anchor="middle">x token retained until both cores fire</text>

  <!-- Dual GEMM region -->
  <rect x="76" y="273" width="1648" height="210" rx="14" fill="#eaf7fb" stroke="#55bdd7" stroke-width="2"/>
  <text x="95" y="298" class="head blue">Dual VersaCore GEMM</text>
  <text x="1700" y="298" class="tiny muted" text-anchor="end">output-stationary · int8 × int8 → int32</text>

  <!-- VC0 -->
  <rect x="108" y="313" width="718" height="146" rx="11" fill="#fff" stroke="#279fbe" stroke-width="1.7"/>
  <rect x="108" y="313" width="718" height="31" rx="11" fill="url(#gemmGrad)"/>
  <rect x="108" y="334" width="718" height="10" fill="url(#gemmGrad)"/>
  <text x="125" y="334" class="label white">VersaCore 0 · xW₁</text>
  <text x="808" y="334" class="tiny white" text-anchor="end">runtime shape: 16×8×8 / 1×32×32</text>
  <rect x="132" y="365" width="105" height="42" rx="6" fill="#e3f4f9" stroke="#72c1d5"/>
  <text x="184.5" y="382" class="small" text-anchor="middle">A/B lane</text>
  <text x="184.5" y="397" class="tiny muted" text-anchor="middle">broadcast network</text>
  <rect x="268" y="354" width="220" height="75" rx="7" fill="#f8fcfd" stroke="#69bfd3"/>
  <text x="378" y="369" class="tiny blue" font-weight="700" text-anchor="middle">1024 parallel multiplier cells</text>
  <g fill="#dff3f8" stroke="#48aac3">
    <rect x="287" y="380" width="30" height="26" rx="3"/><rect x="324" y="380" width="30" height="26" rx="3"/>
    <rect x="361" y="380" width="30" height="26" rx="3"/><rect x="398" y="380" width="30" height="26" rx="3"/>
    <rect x="435" y="380" width="30" height="26" rx="3"/>
  </g>
  <g class="small blue" font-weight="700" text-anchor="middle">
    <text x="302" y="398">×</text><text x="339" y="398">×</text><text x="376" y="398">×</text><text x="413" y="398">×</text><text x="450" y="398">×</text>
  </g>
  <path d="M237 386H268" class="wire"/>
  <path d="M488 392H530" class="wire"/>
  <path d="M530 362L582 392L530 422Z" fill="#e5f6fa" stroke="#36a9c5" stroke-width="1.4"/>
  <text x="547" y="397" class="label blue">Σ</text>
  <text x="555" y="439" class="tiny muted" text-anchor="middle">adder tree</text>
  <rect x="612" y="354" width="92" height="75" rx="7" fill="#edf8f2" stroke="#56b98a"/>
  <text x="658" y="374" class="small green" font-weight="700" text-anchor="middle">ACC DFF</text>
  <text x="658" y="390" class="tiny muted" text-anchor="middle">int32 state</text>
  <path d="M688 413C722 442 729 350 697 363" fill="none" stroke="#4fa87f" stroke-width="1.5"/>
  <path d="M582 392H612" class="wire"/>
  <rect x="730" y="363" width="72" height="58" rx="6" class="reg"/>
  <text x="766" y="383" class="tiny" text-anchor="middle">D P→S</text>
  <text x="766" y="400" class="tiny muted" text-anchor="middle">serializer</text>
  <path d="M704 392H730" class="wire"/>

  <!-- VC1 -->
  <rect x="974" y="313" width="718" height="146" rx="11" fill="#fff" stroke="#279fbe" stroke-width="1.7"/>
  <rect x="974" y="313" width="718" height="31" rx="11" fill="url(#gemmGrad)"/>
  <rect x="974" y="334" width="718" height="10" fill="url(#gemmGrad)"/>
  <text x="991" y="334" class="label white">VersaCore 1 · xV</text>
  <text x="1674" y="334" class="tiny white" text-anchor="end">runtime shape: 16×8×8 / 1×32×32</text>
  <rect x="998" y="365" width="105" height="42" rx="6" fill="#e3f4f9" stroke="#72c1d5"/>
  <text x="1050.5" y="382" class="small" text-anchor="middle">A/B lane</text>
  <text x="1050.5" y="397" class="tiny muted" text-anchor="middle">broadcast network</text>
  <rect x="1134" y="354" width="220" height="75" rx="7" fill="#f8fcfd" stroke="#69bfd3"/>
  <text x="1244" y="369" class="tiny blue" font-weight="700" text-anchor="middle">1024 parallel multiplier cells</text>
  <g fill="#dff3f8" stroke="#48aac3">
    <rect x="1153" y="380" width="30" height="26" rx="3"/><rect x="1190" y="380" width="30" height="26" rx="3"/>
    <rect x="1227" y="380" width="30" height="26" rx="3"/><rect x="1264" y="380" width="30" height="26" rx="3"/>
    <rect x="1301" y="380" width="30" height="26" rx="3"/>
  </g>
  <g class="small blue" font-weight="700" text-anchor="middle">
    <text x="1168" y="398">×</text><text x="1205" y="398">×</text><text x="1242" y="398">×</text><text x="1279" y="398">×</text><text x="1316" y="398">×</text>
  </g>
  <path d="M1103 386H1134" class="wire"/>
  <path d="M1354 392H1396" class="wire"/>
  <path d="M1396 362L1448 392L1396 422Z" fill="#e5f6fa" stroke="#36a9c5" stroke-width="1.4"/>
  <text x="1413" y="397" class="label blue">Σ</text>
  <text x="1421" y="439" class="tiny muted" text-anchor="middle">adder tree</text>
  <rect x="1478" y="354" width="92" height="75" rx="7" fill="#edf8f2" stroke="#56b98a"/>
  <text x="1524" y="374" class="small green" font-weight="700" text-anchor="middle">ACC DFF</text>
  <text x="1524" y="390" class="tiny muted" text-anchor="middle">int32 state</text>
  <path d="M1554 413C1588 442 1595 350 1563 363" fill="none" stroke="#4fa87f" stroke-width="1.5"/>
  <path d="M1448 392H1478" class="wire"/>
  <rect x="1596" y="363" width="72" height="58" rx="6" class="reg"/>
  <text x="1632" y="383" class="tiny" text-anchor="middle">D P→S</text>
  <text x="1632" y="400" class="tiny muted" text-anchor="middle">serializer</text>
  <path d="M1570 392H1596" class="wire"/>

  <path d="M192 176V273H184V365" class="wireB"/>
  <path d="M1548 176V273H1050V365" class="wireB"/>
  <path d="M718 273V365" class="wireB"/>
  <path d="M1022 273V365" class="wireB"/>

  <!-- Joint elastic output buffer -->
  <rect x="150" y="502" width="1500" height="83" rx="11" fill="#f9fbfc" stroke="#617d91" stroke-width="1.8"/>
  <text x="171" y="526" class="head">Dual decoupled output buffer</text>
  <text x="1628" y="526" class="tiny muted" text-anchor="end">joint fire preserves element alignment</text>
  <path d="M766 421V502" class="wireB"/>
  <path d="M1632 421V502" class="wireB"/>
  <rect x="390" y="536" width="325" height="35" rx="6" class="reg"/>
  <text x="405" y="557" class="tiny">D</text><text x="700" y="557" class="tiny" text-anchor="end">Q</text>
  <text x="552" y="550" class="small" font-weight="700" text-anchor="middle">buf0_data[4095:0] DFF</text>
  <text x="552" y="565" class="micro muted" text-anchor="middle">buf0_valid FF</text>
  <rect x="1085" y="536" width="325" height="35" rx="6" class="reg"/>
  <text x="1100" y="557" class="tiny">D</text><text x="1395" y="557" class="tiny" text-anchor="end">Q</text>
  <text x="1247" y="550" class="small" font-weight="700" text-anchor="middle">buf1_data[4095:0] DFF</text>
  <text x="1247" y="565" class="micro muted" text-anchor="middle">buf1_valid FF</text>
  <rect x="755" y="528" width="290" height="46" rx="7" fill="#eef6fa" stroke="#6c9bad"/>
  <text x="900" y="546" class="tiny" font-weight="700" text-anchor="middle">joint ready / fire combinational logic</text>
  <text x="900" y="561" class="micro" text-anchor="middle">fire = v₀ ∧ v₁ ∧ can_accept₀ ∧ can_accept₁</text>
  <path d="M715 553H755" class="wire"/>
  <path d="M1045 553H1085" class="wire"/>

  <!-- Post processing boundary -->
  <rect x="76" y="605" width="1648" height="402" rx="14" fill="#f1faf5" stroke="#2aa36e" stroke-width="2"/>
  <rect x="76" y="605" width="1648" height="34" rx="14" fill="url(#postGrad)"/>
  <rect x="76" y="627" width="1648" height="12" fill="url(#postGrad)"/>
  <text x="96" y="628" class="head white">64-lane post-processing circuit</text>
  <text x="1702" y="628" class="tiny white" text-anchor="end">the schematic inside each lane is replicated ×64</text>

  <!-- Rescale 0 circuit -->
  <rect x="100" y="655" width="780" height="126" rx="10" fill="#fff" stroke="#39a875" stroke-width="1.6"/>
  <text x="118" y="678" class="label green">Rescale 0 · representative lane</text>
  <text x="856" y="678" class="tiny muted" text-anchor="end">int32 → int16 · output DFF</text>
  <text x="115" y="727" class="tiny" text-anchor="end">x[31:0]</text>
  <path d="M120 723H146" class="wire"/>
  <circle cx="170" cy="723" r="23" class="op"/><text x="170" y="719" class="small green" text-anchor="middle">−</text><text x="170" y="733" class="micro" text-anchor="middle">zᵢₙ</text>
  <path d="M193 723H221" class="wire"/>
  <circle cx="246" cy="723" r="25" class="op"/><text x="246" y="719" class="small green" text-anchor="middle">×</text><text x="246" y="734" class="micro" text-anchor="middle">M[32:0]</text>
  <text x="246" y="757" class="micro muted" text-anchor="middle">64-bit product</text>
  <path d="M271 723H300" class="wire"/>
  <path d="M300 698L345 709V737L300 748Z" class="comp"/>
  <text x="322" y="718" class="micro" text-anchor="middle">± round</text>
  <text x="322" y="732" class="micro" text-anchor="middle">bias MUX</text>
  <path d="M345 723H375" class="wire"/>
  <path d="M375 698H431L447 723L431 748H375Z" class="comp"/>
  <text x="411" y="718" class="micro" text-anchor="middle">arithmetic</text>
  <text x="411" y="732" class="micro" text-anchor="middle">barrel ≫ s</text>
  <path d="M447 723H478" class="wire"/>
  <circle cx="502" cy="723" r="23" class="op"/><text x="502" y="719" class="small green" text-anchor="middle">+</text><text x="502" y="733" class="micro" text-anchor="middle">zₒᵤₜ</text>
  <path d="M525 723H552" class="wire"/>
  <path d="M552 695H598L615 723L598 751H552Z" class="comp"/>
  <text x="581" y="714" class="micro" text-anchor="middle">&gt;32767?</text>
  <text x="581" y="727" class="micro" text-anchor="middle">&lt;−32768?</text>
  <text x="581" y="740" class="micro" text-anchor="middle">sat MUX</text>
  <path d="M615 723H642" class="wire"/>
  <rect x="642" y="697" width="92" height="52" rx="5" class="reg"/>
  <text x="651" y="718" class="micro">D</text><text x="725" y="718" class="micro">Q</text>
  <text x="688" y="719" class="tiny" text-anchor="middle">data_o DFF</text>
  <text x="688" y="736" class="micro muted" text-anchor="middle">valid_o FF</text>
  <path d="M734 723H855" class="wireG"/>
  <text x="842" y="713" class="micro muted" text-anchor="end">16-bit</text>
  <path d="M688 749V763H626" class="wireThin"/>
  <text x="614" y="768" class="micro muted" text-anchor="end">CE = ¬valid_o ∨ ready_i</text>

  <!-- Rescale 1 circuit -->
  <rect x="920" y="655" width="780" height="126" rx="10" fill="#fff" stroke="#39a875" stroke-width="1.6"/>
  <text x="938" y="678" class="label green">Rescale 1 · representative lane</text>
  <text x="1676" y="678" class="tiny muted" text-anchor="end">same circuit, independent data registers</text>
  <text x="935" y="727" class="tiny" text-anchor="end">x[31:0]</text>
  <path d="M940 723H966" class="wire"/>
  <circle cx="990" cy="723" r="23" class="op"/><text x="990" y="719" class="small green" text-anchor="middle">−</text><text x="990" y="733" class="micro" text-anchor="middle">zᵢₙ</text>
  <path d="M1013 723H1041" class="wire"/>
  <circle cx="1066" cy="723" r="25" class="op"/><text x="1066" y="719" class="small green" text-anchor="middle">×</text><text x="1066" y="734" class="micro" text-anchor="middle">M[32:0]</text>
  <path d="M1091 723H1120" class="wire"/>
  <path d="M1120 698L1165 709V737L1120 748Z" class="comp"/>
  <text x="1142" y="718" class="micro" text-anchor="middle">± round</text>
  <text x="1142" y="732" class="micro" text-anchor="middle">bias MUX</text>
  <path d="M1165 723H1195" class="wire"/>
  <path d="M1195 698H1251L1267 723L1251 748H1195Z" class="comp"/>
  <text x="1231" y="718" class="micro" text-anchor="middle">arithmetic</text>
  <text x="1231" y="732" class="micro" text-anchor="middle">barrel ≫ s</text>
  <path d="M1267 723H1298" class="wire"/>
  <circle cx="1322" cy="723" r="23" class="op"/><text x="1322" y="719" class="small green" text-anchor="middle">+</text><text x="1322" y="733" class="micro" text-anchor="middle">zₒᵤₜ</text>
  <path d="M1345 723H1372" class="wire"/>
  <path d="M1372 695H1418L1435 723L1418 751H1372Z" class="comp"/>
  <text x="1401" y="714" class="micro" text-anchor="middle">&gt;32767?</text>
  <text x="1401" y="727" class="micro" text-anchor="middle">&lt;−32768?</text>
  <text x="1401" y="740" class="micro" text-anchor="middle">sat MUX</text>
  <path d="M1435 723H1462" class="wire"/>
  <rect x="1462" y="697" width="92" height="52" rx="5" class="reg"/>
  <text x="1471" y="718" class="micro">D</text><text x="1545" y="718" class="micro">Q</text>
  <text x="1508" y="719" class="tiny" text-anchor="middle">data_o DFF</text>
  <text x="1508" y="736" class="micro muted" text-anchor="middle">valid_o FF</text>
  <path d="M1554 723H1675" class="wireG"/>
  <text x="1662" y="713" class="micro muted" text-anchor="end">16-bit</text>

  <!-- serializers from buffers to rescale -->
  <rect x="268" y="595" width="250" height="38" rx="6" fill="#eef4f7" stroke="#7892a5"/>
  <text x="393" y="612" class="tiny" font-weight="700" text-anchor="middle">chunk counter + lane-select MUX</text>
  <text x="393" y="625" class="micro muted" text-anchor="middle">4096-bit → 64 × int32</text>
  <rect x="1282" y="595" width="250" height="38" rx="6" fill="#eef4f7" stroke="#7892a5"/>
  <text x="1407" y="612" class="tiny" font-weight="700" text-anchor="middle">chunk counter + lane-select MUX</text>
  <text x="1407" y="625" class="micro muted" text-anchor="middle">4096-bit → 64 × int32</text>
  <path d="M552 571V595H393V655" class="wireG"/>
  <path d="M1247 571V595H1407V655" class="wireG"/>

  <!-- SiLU circuit -->
  <rect x="100" y="802" width="938" height="141" rx="10" fill="#fff" stroke="#229b68" stroke-width="1.8"/>
  <text x="118" y="825" class="label green">SiLU · one Q16.11 lane · three enabled pipeline stages</text>
  <text x="1016" y="825" class="tiny muted" text-anchor="end">replicated ×64</text>
  <path d="M170 781V849H192" class="wireG"/>
  <rect x="192" y="836" width="74" height="48" rx="5" class="reg"/>
  <text x="229" y="855" class="tiny" text-anchor="middle">x DFF</text>
  <text x="229" y="871" class="micro muted" text-anchor="middle">CE₀ / valid₀</text>
  <path d="M266 860H292" class="wire"/>
  <g>
    <path d="M292 831L328 842V856L292 867Z" class="comp"/>
    <path d="M292 853L328 864V878L292 889Z" class="comp"/>
    <text x="306" y="850" class="micro" text-anchor="middle">x&lt;T₀</text>
    <text x="306" y="872" class="micro" text-anchor="middle">x&lt;T₁…</text>
  </g>
  <path d="M328 860H353" class="wire"/>
  <rect x="353" y="836" width="88" height="48" rx="5" class="comp"/>
  <text x="397" y="855" class="tiny" text-anchor="middle">priority encoder</text>
  <text x="397" y="871" class="micro muted" text-anchor="middle">seg_idx[2:0]</text>
  <path d="M441 860H466" class="wire"/>
  <rect x="466" y="831" width="102" height="58" rx="5" fill="#f0f7fb" stroke="#548fa7"/>
  <text x="517" y="851" class="tiny" text-anchor="middle">coefficient ROM</text>
  <text x="517" y="868" class="micro muted" text-anchor="middle">a₂ · a₁ · a₀</text>
  <path d="M568 850H592" class="wire"/>
  <circle cx="617" cy="850" r="23" class="op"/><text x="617" y="855" class="label green" text-anchor="middle">×</text>
  <path d="M640 850H662" class="wire"/>
  <circle cx="686" cy="850" r="22" class="op"/><text x="686" y="855" class="label green" text-anchor="middle">+</text>
  <text x="651" y="904" class="micro muted" text-anchor="middle">t₀ = sat(a₂·x + a₁)</text>
  <rect x="721" y="827" width="80" height="58" rx="5" class="reg"/>
  <text x="761" y="849" class="tiny" text-anchor="middle">t₀ DFF</text>
  <text x="761" y="867" class="micro muted" text-anchor="middle">CE₁ / valid₁</text>
  <path d="M708 850H721" class="wire"/>
  <path d="M801 850H823" class="wire"/>
  <circle cx="847" cy="850" r="23" class="op"/><text x="847" y="855" class="label green" text-anchor="middle">×</text>
  <path d="M870 850H892" class="wire"/>
  <circle cx="916" cy="850" r="22" class="op"/><text x="916" y="855" class="label green" text-anchor="middle">+</text>
  <text x="881" y="904" class="micro muted" text-anchor="middle">y = sat(t₀·x + a₀)</text>
  <rect x="948" y="827" width="72" height="58" rx="5" class="reg"/>
  <text x="984" y="849" class="tiny" text-anchor="middle">y DFF</text>
  <text x="984" y="867" class="micro muted" text-anchor="middle">CE₂ / valid₂</text>
  <path d="M938 850H948" class="wire"/>
  <path d="M1020 856H1062" class="wireG"/>
  <path d="M229 884V924H965V885" class="wireThin"/>
  <text x="570" y="934" class="micro muted" text-anchor="middle">ready propagates backward; CE freezes data and valid together under backpressure</text>

  <!-- Element-wise multiply circuit -->
  <rect x="1080" y="802" width="620" height="141" rx="10" fill="#fffaf1" stroke="#dd8b1b" stroke-width="1.8"/>
  <text x="1098" y="825" class="label orange">Element-wise multiply · representative lane</text>
  <text x="1678" y="825" class="tiny muted" text-anchor="end">int16 × int16 → int32</text>
  <path d="M1062 856H1110" class="wireG"/>
  <rect x="1110" y="837" width="96" height="45" rx="5" class="reg"/>
  <text x="1158" y="854" class="tiny" text-anchor="middle">operand 0 DFF</text>
  <text x="1158" y="870" class="micro muted" text-anchor="middle">valid₀ FF</text>
  <path d="M1508 781V905H1218" class="wireG"/>
  <rect x="1110" y="889" width="96" height="45" rx="5" class="reg"/>
  <text x="1158" y="906" class="tiny" text-anchor="middle">operand 1 DFF</text>
  <text x="1158" y="922" class="micro muted" text-anchor="middle">valid₁ FF</text>
  <path d="M1206 860H1252" class="wire"/>
  <path d="M1206 912H1230V876H1252" class="wire"/>
  <rect x="1252" y="839" width="112" height="69" rx="6" fill="#fff" stroke="#d99334"/>
  <text x="1308" y="858" class="tiny" font-weight="700" text-anchor="middle">join / fire logic</text>
  <text x="1308" y="875" class="micro" text-anchor="middle">fire = v₀ ∧ v₁</text>
  <text x="1308" y="889" class="micro" text-anchor="middle">∧ (¬vout ∨ rout)</text>
  <path d="M1364 874H1392" class="wire"/>
  <circle cx="1422" cy="874" r="29" fill="#fff" stroke="#d68110" stroke-width="1.8"/>
  <text x="1422" y="882" font-size="24" class="orange" text-anchor="middle">×</text>
  <path d="M1451 874H1480" class="wire"/>
  <rect x="1480" y="846" width="104" height="56" rx="5" class="reg"/>
  <text x="1532" y="868" class="tiny" text-anchor="middle">product DFF</text>
  <text x="1532" y="886" class="micro muted" text-anchor="middle">valid_out FF</text>
  <path d="M1584 874H1678" class="wireG"/>
  <text x="1670" y="864" class="micro muted" text-anchor="end">32-bit</text>

  <!-- RescaleMul abstracted with explicit reference -->
  <rect x="650" y="957" width="500" height="36" rx="8" fill="#eaf7f0" stroke="#2fa06d"/>
  <text x="900" y="973" class="small green" font-weight="700" text-anchor="middle">Rescale MUL: identical lane circuit to Rescale 0/1 · int32 → int16</text>
  <text x="900" y="987" class="micro muted" text-anchor="middle">own multiplier / shift / zero-point CSRs and registered output</text>
  <path d="M1678 874H1710V975H1150" class="wireG"/>

  <!-- Mode mux / writer -->
  <path d="M650 975H610" class="wireG"/>
  <path d="M610 954L650 975L610 996Z" fill="#fff" stroke="#2c9f6c" stroke-width="1.6"/>
  <text x="623" y="979" class="tiny green" text-anchor="middle">M</text>
  <rect x="370" y="957" width="218" height="36" rx="7" class="reg"/>
  <text x="479" y="972" class="small" text-anchor="middle">output assembly DFFs</text>
  <text x="479" y="986" class="micro muted" text-anchor="middle">64 × int16 → writer beat</text>
  <path d="M610 975H588" class="wireG"/>
  <path d="M370 975H320" class="wireG"/>
  <path d="M320 954L280 975L320 996Z" fill="#eaf7f0" stroke="#2c9f6c" stroke-width="1.6"/>
  <text x="307" y="979" class="tiny green" text-anchor="middle">out</text>
  <path d="M280 975H155" class="wireG"/>
  <text x="145" y="979" class="head green" text-anchor="end">Writer 0</text>

  <!-- Mode 1 bypass paths -->
  <path d="M855 723H892V997H340" class="bypass"/>
  <path d="M1675 723H1712V997H1575" class="bypass"/>
  <text x="758" y="800" class="tiny muted">Mode 1: Rescale 0 bypasses SiLU / EWU</text>
  <text x="1532" y="997" class="head muted" text-anchor="end">Writer 1</text>
  <text x="1390" y="1007" class="micro muted">Mode 1 only</text>

  <!-- Config/control note -->
  <rect x="1225" y="957" width="335" height="36" rx="8" fill="#eef5fa" stroke="#8ba9bc"/>
  <text x="1392.5" y="972" class="tiny" font-weight="700" text-anchor="middle">active_cfg DFF bank</text>
  <text x="1392.5" y="986" class="micro muted" text-anchor="middle">mode / shape / three rescale parameter sets</text>

  <text x="58" y="1025" class="micro muted">RTL source: DualVersaCoreSwigluGen.scala · VersaCore.scala · Array.scala · rescale_down_32to16.sv · silu_top.sv · silu_multilane.sv · elem_mul_16b.sv</text>
</svg>
